UFC 126 Anderson Silva v Vitor Belfort-XviD-SINGLE-FIGHT-ONLY

Format : AVI
Format/Info : Audio Video Interleave
File size : 242 MiB
Duration : 14mn 22s
Overall bit rate : 2 349 Kbps

Video
ID : 0
Format : MPEG-4 Visual
Format profile : Advanced Simple@L5
Format settings, BVOP : 1
Format settings, QPel : No
Format settings, GMC : No warppoints
Format settings, Matrix : Default (H.263)
Muxing mode : Packed bitstream
Codec ID : XVID
Codec ID/Hint : XviD
Duration : 14mn 22s
Bit rate : 2 209 Kbps
Width : 720 pixels
Height : 364 pixels
Display aspect ratio : 1.978
Frame rate : 29.970 fps
Color space : YUV
Chroma subsampling : 4:2:0
Bit depth : 8 bits
Scan type : Progressive
Compression mode : Lossy
Bits/(Pixel*Frame) : 0.281
Stream size : 227 MiB (94%)
Writing library : XviD 1.1.0 (UTC 2005-11-22)

Audio
ID : 1
Format : MPEG Audio
Format version : Version 1
Format profile : Layer 3
Codec ID : 55
Codec ID/Hint : MP3
Duration : 14mn 22s
Bit rate mode : Constant
Bit rate : 128 Kbps
Channel(s) : 2 channels
Sampling rate : 48.0 KHz
Compression mode : Lossy
Delay relative to video : 24ms
Stream size : 13.2 MiB (5%)
Alignment : Split accross interleaves
Interleave, duration : 33 ms (1.00 video frame)
Interleave, preload duration : 45 ms
Title : Audio Stream